# xmcd
#
# Track frame offsets: 
#        150
#        19725
#        30101
#        56144
#        65265
#        76992
#        89512
#        95715
#        106940
#        123877
#        133818
#        147371
#        174054
#        185540
#        196309
#        202934
#        214209
#        225960
#        239298
#        248925
#        264930
#        275160
#        286305
#        322608
#        340967
#
# Disc length: 4726 seconds
#
# Revision: 0
# Processed by: cddbd v1.5.2PL0 Copyright (c) Steve Scherf et al.
# Submitted via: ExactAudioCopy v1.0b1
#
DISCID=5c127419
DTITLE=Suge White and Ghetto Fabolous - The Mechanic
DYEAR=2011
DGENRE=Rap
TTITLE0=Hustle Hard (BK-Mix) feat. Jimmy Da Gent (of Tha Product), Red
TTITLE0=Cafe, Maino)
TTITLE1=Perfect Match feat. Lloyd Banks, Travis Barker
TTITLE2=You Be Killin Em (CornerMix) feat. Tha Product, Lil Kim, Meek 
TTITLE2=Mill
TTITLE3=Wolves In Sheep's Clothing
TTITLE4=Ferrari Lifestyle feat. The Game
TTITLE5=Whip It feat. The Game
TTITLE6=Hold it Now feat. PoeRilla
TTITLE7=Make Some Noise feat. Sheek Louch
TTITLE8=Steve Jobs feat. Paul Cain
TTITLE9=Fire Flame(G-Mix) feat. Rock of Heltah Skeltah
TTITLE10=Never Stop Hustlin' (Re-Release) feat. The Game
TTITLE11=Start It Up (Re-Remix) feat. Young Jeezy, Lloyd Banks, Kanye 
TTITLE11=West, Swizz Beatz, Ryan Leslie, Pusha T
TTITLE12=Touch It feat. Tha Product, Kanye West
TTITLE13=Motivate feat. Hollywood Fergie, T-Pain
TTITLE14=One In A Million feat. Jadakiss, Ne-Yo
TTITLE15=Baby I Like It feat. Diddy, Kevin Cossom
TTITLE16=Club Hoppin feat. Bravo
TTITLE17=I'm the Shit feat. Trey Songz
TTITLE18=Freestyle feat. Jimmy Da Gent (of Tha Product)
TTITLE19=Tangerine (Remix) feat. Big Boi, Ricky Rozay, Bun B
TTITLE20=Swagger Right feat. Ricky Rozay
TTITLE21=May I feat. Trey Songz
TTITLE22=In The Morning feat. J Cole, Drake, Omarion
TTITLE23=Money feat. Jimmy Da Gent (of Tha Product)
TTITLE24=We Ain't Playin feat. L.E.P. Bogus Boys
EXTD=
EXTT0=
EXTT1=
EXTT2=
EXTT3=
EXTT4=
EXTT5=
EXTT6=
EXTT7=
EXTT8=
EXTT9=
EXTT10=
EXTT11=
EXTT12=
EXTT13=
EXTT14=
EXTT15=
EXTT16=
EXTT17=
EXTT18=
EXTT19=
EXTT20=
EXTT21=
EXTT22=
EXTT23=
EXTT24=
PLAYORDER=
